<svg xmlns="http://www.w3.org/2000/svg" width="291.728" height="340.619" viewBox="0 0 291.728 340.619"><g transform="translate(11.799 -17.639)"><path d="M-832.557-36.8l-7.716-56.041,33.416,40.7,72.116-111.445-10.122,91.364-3,27.042,77.212-27.042-33.924,49.271,84.707,6.372L-714.061,9.1l54.468,67.645-81.3-11.6,45.35,105.55-98.236-93.95-4.869,79.932-21.536-91.532-71.6,16.871,51.507-57.375L-898.634-36.8Z" transform="translate(898.48 183.947)" fill="#fffaaf"/><path d="M-738.94-166.308l9.167,3.267L-742.016-52.53l84.173-29.48-37.676,54.721,76.028,5.719.94,9.81-86.825,23.677,57.63,71.572-85.04-12.133,41.835,97.369-8.05,5.587-90.445-86.5-4.213,69.171-9.858.841-20.39-86.663-82.245,19.38,59.073-65.8-63.2-66.543h71.986l-9.348-67.894,40.3,49.088ZM-753.7-37.84l11.663-105.266-64.337,99.423-26.527-32.309,6.084,44.188H-886.99l53.521,56.352L-877.41,73.5l60.947-14.361,14.891,63.292,3.456-56.743,88.287,84.436L-749,58.94l77.564,11.066L-722.746,6.288l73.572-20.063-64.453-4.848,30.171-43.821Z" transform="translate(898.48 183.947)"/><ellipse cx="12.051" cy="13.673" rx="12.051" ry="13.673" transform="translate(86.93 171.715)"/><ellipse cx="12.051" cy="13.673" rx="12.051" ry="13.673" transform="translate(132.815 171.715)"/><ellipse cx="9.733" cy="11.124" rx="9.733" ry="11.124" transform="translate(125.399 216.578)"/><path d="M-.005,8.527A5,5,0,0,1-4.9,4.514,5,5,0,0,1-.988-1.375L16.5-4.9A5,5,0,0,1,22.393-.988,5,5,0,0,1,18.48,4.9L.988,8.428A5.024,5.024,0,0,1-.005,8.527Z" transform="translate(86.93 155.5)"/><path d="M17.5,8.527a5.021,5.021,0,0,1-.993-.1L-.988,4.9A5,5,0,0,1-4.9-.988,5,5,0,0,1,.988-4.9L18.48-1.375a5,5,0,0,1-.983,9.9Z" transform="translate(132.815 155.5)"/></g></svg>